<svg width="265" height="265" viewBox="0 0 265 265" fill="none" xmlns="http://www.w3.org/2000/svg">
<path d="M19.95 264.7C16.2833 264.7 12.9833 263.933 10.05 262.4C7.15 260.833 4.86667 258.667 3.2 255.9C1.53333 253.133 0.7 250 0.7 246.5C0.7 243 1.53333 239.867 3.2 237.1C4.86667 234.333 7.15 232.183 10.05 230.65C12.9833 229.083 16.2833 228.3 19.95 228.3C23.15 228.3 26.0333 228.867 28.6 230C31.1667 231.133 33.3 232.767 35 234.9L28.7 240.6C26.4333 237.867 23.6833 236.5 20.45 236.5C18.55 236.5 16.85 236.917 15.35 237.75C13.8833 238.583 12.7333 239.767 11.9 241.3C11.1 242.8 10.7 244.533 10.7 246.5C10.7 248.467 11.1 250.217 11.9 251.75C12.7333 253.25 13.8833 254.417 15.35 255.25C16.85 256.083 18.55 256.5 20.45 256.5C23.6833 256.5 26.4333 255.133 28.7 252.4L35 258.1C33.3 260.233 31.1667 261.867 28.6 263C26.0333 264.133 23.15 264.7 19.95 264.7ZM62.1316 245.75H70.8816V260.25C68.8816 261.683 66.5816 262.783 63.9816 263.55C61.3816 264.317 58.7816 264.7 56.1816 264.7C52.515 264.7 49.215 263.933 46.2816 262.4C43.3483 260.833 41.0483 258.667 39.3816 255.9C37.715 253.133 36.8816 250 36.8816 246.5C36.8816 243 37.715 239.867 39.3816 237.1C41.0483 234.333 43.365 232.183 46.3316 230.65C49.2983 229.083 52.6483 228.3 56.3816 228.3C59.6483 228.3 62.5816 228.85 65.1816 229.95C67.7816 231.05 69.9483 232.633 71.6816 234.7L65.3816 240.4C63.015 237.8 60.1816 236.5 56.8816 236.5C53.8816 236.5 51.465 237.417 49.6316 239.25C47.7983 241.05 46.8816 243.467 46.8816 246.5C46.8816 248.433 47.2983 250.167 48.1316 251.7C48.965 253.2 50.1316 254.383 51.6316 255.25C53.1316 256.083 54.8483 256.5 56.7816 256.5C58.6816 256.5 60.465 256.117 62.1316 255.35V245.75ZM105.508 226.9V264H96.4582V261.3C94.6915 263.4 92.0415 264.45 88.5082 264.45C86.0415 264.45 83.7915 263.883 81.7582 262.75C79.7249 261.583 78.1082 259.933 76.9082 257.8C75.7415 255.667 75.1582 253.2 75.1582 250.4C75.1582 247.6 75.7415 245.15 76.9082 243.05C78.1082 240.917 79.7249 239.283 81.7582 238.15C83.7915 237.017 86.0415 236.45 88.5082 236.45C91.7415 236.45 94.2415 237.383 96.0082 239.25V226.9H105.508ZM90.5082 256.9C92.1415 256.9 93.4915 256.333 94.5582 255.2C95.6249 254.033 96.1582 252.433 96.1582 250.4C96.1582 248.4 95.6249 246.833 94.5582 245.7C93.5249 244.567 92.1749 244 90.5082 244C88.8415 244 87.4749 244.567 86.4082 245.7C85.3415 246.833 84.8082 248.4 84.8082 250.4C84.8082 252.433 85.3415 254.033 86.4082 255.2C87.4749 256.333 88.8415 256.9 90.5082 256.9ZM139.32 250.5C139.32 250.567 139.27 251.35 139.17 252.85H119.47C119.87 254.25 120.637 255.333 121.77 256.1C122.937 256.833 124.387 257.2 126.12 257.2C127.42 257.2 128.537 257.017 129.47 256.65C130.437 256.283 131.404 255.683 132.37 254.85L137.37 260.05C134.737 262.983 130.887 264.45 125.82 264.45C122.654 264.45 119.87 263.85 117.47 262.65C115.07 261.45 113.204 259.783 111.87 257.65C110.57 255.517 109.92 253.1 109.92 250.4C109.92 247.733 110.554 245.35 111.82 243.25C113.12 241.117 114.904 239.45 117.17 238.25C119.437 237.05 121.987 236.45 124.82 236.45C127.52 236.45 129.97 237.017 132.17 238.15C134.37 239.25 136.104 240.867 137.37 243C138.67 245.1 139.32 247.6 139.32 250.5ZM124.87 243.2C123.404 243.2 122.17 243.617 121.17 244.45C120.204 245.283 119.587 246.417 119.32 247.85H130.42C130.154 246.417 129.52 245.283 128.52 244.45C127.554 243.617 126.337 243.2 124.87 243.2ZM161.6 264.7C157.934 264.7 154.634 263.933 151.7 262.4C148.8 260.833 146.517 258.667 144.85 255.9C143.184 253.133 142.35 250 142.35 246.5C142.35 243 143.184 239.867 144.85 237.1C146.517 234.333 148.8 232.183 151.7 230.65C154.634 229.083 157.934 228.3 161.6 228.3C164.8 228.3 167.684 228.867 170.25 230C172.817 231.133 174.95 232.767 176.65 234.9L170.35 240.6C168.084 237.867 165.334 236.5 162.1 236.5C160.2 236.5 158.5 236.917 157 237.75C155.534 238.583 154.384 239.767 153.55 241.3C152.75 242.8 152.35 244.533 152.35 246.5C152.35 248.467 152.75 250.217 153.55 251.75C154.384 253.25 155.534 254.417 157 255.25C158.5 256.083 160.2 256.5 162.1 256.5C165.334 256.5 168.084 255.133 170.35 252.4L176.65 258.1C174.95 260.233 172.817 261.867 170.25 263C167.684 264.133 164.8 264.7 161.6 264.7ZM192.067 236.45C196.567 236.45 200 237.483 202.367 239.55C204.733 241.583 205.917 244.717 205.917 248.95V264H197.067V260.5C195.7 263.133 193.033 264.45 189.067 264.45C186.967 264.45 185.15 264.083 183.617 263.35C182.083 262.617 180.917 261.633 180.117 260.4C179.35 259.133 178.967 257.7 178.967 256.1C178.967 253.533 179.95 251.55 181.917 250.15C183.883 248.717 186.917 248 191.017 248H196.417C196.25 245.133 194.333 243.7 190.667 243.7C189.367 243.7 188.05 243.917 186.717 244.35C185.383 244.75 184.25 245.317 183.317 246.05L180.117 239.6C181.617 238.6 183.433 237.833 185.567 237.3C187.733 236.733 189.9 236.45 192.067 236.45ZM191.717 258.45C192.817 258.45 193.783 258.183 194.617 257.65C195.45 257.117 196.05 256.333 196.417 255.3V252.95H192.317C189.55 252.95 188.167 253.867 188.167 255.7C188.167 256.533 188.483 257.2 189.117 257.7C189.75 258.2 190.617 258.45 191.717 258.45ZM221.763 264.45C219.497 264.45 217.263 264.2 215.063 263.7C212.863 263.167 211.097 262.483 209.763 261.65L212.613 255.15C213.847 255.917 215.313 256.533 217.013 257C218.713 257.433 220.397 257.65 222.063 257.65C223.597 257.65 224.68 257.5 225.313 257.2C225.98 256.867 226.313 256.4 226.313 255.8C226.313 255.2 225.913 254.783 225.113 254.55C224.347 254.283 223.113 254.033 221.413 253.8C219.247 253.533 217.397 253.183 215.863 252.75C214.363 252.317 213.063 251.517 211.963 250.35C210.863 249.183 210.313 247.55 210.313 245.45C210.313 243.717 210.83 242.183 211.863 240.85C212.897 239.483 214.397 238.417 216.363 237.65C218.363 236.85 220.747 236.45 223.513 236.45C225.48 236.45 227.43 236.65 229.363 237.05C231.297 237.45 232.913 238.017 234.213 238.75L231.363 245.2C228.963 243.867 226.363 243.2 223.563 243.2C222.063 243.2 220.963 243.383 220.263 243.75C219.563 244.083 219.213 244.533 219.213 245.1C219.213 245.733 219.597 246.183 220.363 246.45C221.13 246.683 222.397 246.933 224.163 247.2C226.397 247.533 228.247 247.917 229.713 248.35C231.18 248.783 232.447 249.583 233.513 250.75C234.613 251.883 235.163 253.483 235.163 255.55C235.163 257.25 234.647 258.783 233.613 260.15C232.58 261.483 231.047 262.533 229.013 263.3C227.013 264.067 224.597 264.45 221.763 264.45ZM250.807 236.45C255.307 236.45 258.74 237.483 261.107 239.55C263.474 241.583 264.657 244.717 264.657 248.95V264H255.807V260.5C254.44 263.133 251.774 264.45 247.807 264.45C245.707 264.45 243.89 264.083 242.357 263.35C240.824 262.617 239.657 261.633 238.857 260.4C238.09 259.133 237.707 257.7 237.707 256.1C237.707 253.533 238.69 251.55 240.657 250.15C242.624 248.717 245.657 248 249.757 248H255.157C254.99 245.133 253.074 243.7 249.407 243.7C248.107 243.7 246.79 243.917 245.457 244.35C244.124 244.75 242.99 245.317 242.057 246.05L238.857 239.6C240.357 238.6 242.174 237.833 244.307 237.3C246.474 236.733 248.64 236.45 250.807 236.45ZM250.457 258.45C251.557 258.45 252.524 258.183 253.357 257.65C254.19 257.117 254.79 256.333 255.157 255.3V252.95H251.057C248.29 252.95 246.907 253.867 246.907 255.7C246.907 256.533 247.224 257.2 247.857 257.7C248.49 258.2 249.357 258.45 250.457 258.45Z" fill="#79FFCF"/>
<path d="M19.95 262.7C16.2833 262.7 12.9833 261.933 10.05 260.4C7.15 258.833 4.86667 256.667 3.2 253.9C1.53333 251.133 0.7 248 0.7 244.5C0.7 241 1.53333 237.867 3.2 235.1C4.86667 232.333 7.15 230.183 10.05 228.65C12.9833 227.083 16.2833 226.3 19.95 226.3C23.15 226.3 26.0333 226.867 28.6 228C31.1667 229.133 33.3 230.767 35 232.9L28.7 238.6C26.4333 235.867 23.6833 234.5 20.45 234.5C18.55 234.5 16.85 234.917 15.35 235.75C13.8833 236.583 12.7333 237.767 11.9 239.3C11.1 240.8 10.7 242.533 10.7 244.5C10.7 246.467 11.1 248.217 11.9 249.75C12.7333 251.25 13.8833 252.417 15.35 253.25C16.85 254.083 18.55 254.5 20.45 254.5C23.6833 254.5 26.4333 253.133 28.7 250.4L35 256.1C33.3 258.233 31.1667 259.867 28.6 261C26.0333 262.133 23.15 262.7 19.95 262.7ZM62.1316 243.75H70.8816V258.25C68.8816 259.683 66.5816 260.783 63.9816 261.55C61.3816 262.317 58.7816 262.7 56.1816 262.7C52.515 262.7 49.215 261.933 46.2816 260.4C43.3483 258.833 41.0483 256.667 39.3816 253.9C37.715 251.133 36.8816 248 36.8816 244.5C36.8816 241 37.715 237.867 39.3816 235.1C41.0483 232.333 43.365 230.183 46.3316 228.65C49.2983 227.083 52.6483 226.3 56.3816 226.3C59.6483 226.3 62.5816 226.85 65.1816 227.95C67.7816 229.05 69.9483 230.633 71.6816 232.7L65.3816 238.4C63.015 235.8 60.1816 234.5 56.8816 234.5C53.8816 234.5 51.465 235.417 49.6316 237.25C47.7983 239.05 46.8816 241.467 46.8816 244.5C46.8816 246.433 47.2983 248.167 48.1316 249.7C48.965 251.2 50.1316 252.383 51.6316 253.25C53.1316 254.083 54.8483 254.5 56.7816 254.5C58.6816 254.5 60.465 254.117 62.1316 253.35V243.75ZM105.508 224.9V262H96.4582V259.3C94.6915 261.4 92.0415 262.45 88.5082 262.45C86.0415 262.45 83.7915 261.883 81.7582 260.75C79.7249 259.583 78.1082 257.933 76.9082 255.8C75.7415 253.667 75.1582 251.2 75.1582 248.4C75.1582 245.6 75.7415 243.15 76.9082 241.05C78.1082 238.917 79.7249 237.283 81.7582 236.15C83.7915 235.017 86.0415 234.45 88.5082 234.45C91.7415 234.45 94.2415 235.383 96.0082 237.25V224.9H105.508ZM90.5082 254.9C92.1415 254.9 93.4915 254.333 94.5582 253.2C95.6249 252.033 96.1582 250.433 96.1582 248.4C96.1582 246.4 95.6249 244.833 94.5582 243.7C93.5249 242.567 92.1749 242 90.5082 242C88.8415 242 87.4749 242.567 86.4082 243.7C85.3415 244.833 84.8082 246.4 84.8082 248.4C84.8082 250.433 85.3415 252.033 86.4082 253.2C87.4749 254.333 88.8415 254.9 90.5082 254.9ZM139.32 248.5C139.32 248.567 139.27 249.35 139.17 250.85H119.47C119.87 252.25 120.637 253.333 121.77 254.1C122.937 254.833 124.387 255.2 126.12 255.2C127.42 255.2 128.537 255.017 129.47 254.65C130.437 254.283 131.404 253.683 132.37 252.85L137.37 258.05C134.737 260.983 130.887 262.45 125.82 262.45C122.654 262.45 119.87 261.85 117.47 260.65C115.07 259.45 113.204 257.783 111.87 255.65C110.57 253.517 109.92 251.1 109.92 248.4C109.92 245.733 110.554 243.35 111.82 241.25C113.12 239.117 114.904 237.45 117.17 236.25C119.437 235.05 121.987 234.45 124.82 234.45C127.52 234.45 129.97 235.017 132.17 236.15C134.37 237.25 136.104 238.867 137.37 241C138.67 243.1 139.32 245.6 139.32 248.5ZM124.87 241.2C123.404 241.2 122.17 241.617 121.17 242.45C120.204 243.283 119.587 244.417 119.32 245.85H130.42C130.154 244.417 129.52 243.283 128.52 242.45C127.554 241.617 126.337 241.2 124.87 241.2ZM161.6 262.7C157.934 262.7 154.634 261.933 151.7 260.4C148.8 258.833 146.517 256.667 144.85 253.9C143.184 251.133 142.35 248 142.35 244.5C142.35 241 143.184 237.867 144.85 235.1C146.517 232.333 148.8 230.183 151.7 228.65C154.634 227.083 157.934 226.3 161.6 226.3C164.8 226.3 167.684 226.867 170.25 228C172.817 229.133 174.95 230.767 176.65 232.9L170.35 238.6C168.084 235.867 165.334 234.5 162.1 234.5C160.2 234.5 158.5 234.917 157 235.75C155.534 236.583 154.384 237.767 153.55 239.3C152.75 240.8 152.35 242.533 152.35 244.5C152.35 246.467 152.75 248.217 153.55 249.75C154.384 251.25 155.534 252.417 157 253.25C158.5 254.083 160.2 254.5 162.1 254.5C165.334 254.5 168.084 253.133 170.35 250.4L176.65 256.1C174.95 258.233 172.817 259.867 170.25 261C167.684 262.133 164.8 262.7 161.6 262.7ZM192.067 234.45C196.567 234.45 200 235.483 202.367 237.55C204.733 239.583 205.917 242.717 205.917 246.95V262H197.067V258.5C195.7 261.133 193.033 262.45 189.067 262.45C186.967 262.45 185.15 262.083 183.617 261.35C182.083 260.617 180.917 259.633 180.117 258.4C179.35 257.133 178.967 255.7 178.967 254.1C178.967 251.533 179.95 249.55 181.917 248.15C183.883 246.717 186.917 246 191.017 246H196.417C196.25 243.133 194.333 241.7 190.667 241.7C189.367 241.7 188.05 241.917 186.717 242.35C185.383 242.75 184.25 243.317 183.317 244.05L180.117 237.6C181.617 236.6 183.433 235.833 185.567 235.3C187.733 234.733 189.9 234.45 192.067 234.45ZM191.717 256.45C192.817 256.45 193.783 256.183 194.617 255.65C195.45 255.117 196.05 254.333 196.417 253.3V250.95H192.317C189.55 250.95 188.167 251.867 188.167 253.7C188.167 254.533 188.483 255.2 189.117 255.7C189.75 256.2 190.617 256.45 191.717 256.45ZM221.763 262.45C219.497 262.45 217.263 262.2 215.063 261.7C212.863 261.167 211.097 260.483 209.763 259.65L212.613 253.15C213.847 253.917 215.313 254.533 217.013 255C218.713 255.433 220.397 255.65 222.063 255.65C223.597 255.65 224.68 255.5 225.313 255.2C225.98 254.867 226.313 254.4 226.313 253.8C226.313 253.2 225.913 252.783 225.113 252.55C224.347 252.283 223.113 252.033 221.413 251.8C219.247 251.533 217.397 251.183 215.863 250.75C214.363 250.317 213.063 249.517 211.963 248.35C210.863 247.183 210.313 245.55 210.313 243.45C210.313 241.717 210.83 240.183 211.863 238.85C212.897 237.483 214.397 236.417 216.363 235.65C218.363 234.85 220.747 234.45 223.513 234.45C225.48 234.45 227.43 234.65 229.363 235.05C231.297 235.45 232.913 236.017 234.213 236.75L231.363 243.2C228.963 241.867 226.363 241.2 223.563 241.2C222.063 241.2 220.963 241.383 220.263 241.75C219.563 242.083 219.213 242.533 219.213 243.1C219.213 243.733 219.597 244.183 220.363 244.45C221.13 244.683 222.397 244.933 224.163 245.2C226.397 245.533 228.247 245.917 229.713 246.35C231.18 246.783 232.447 247.583 233.513 248.75C234.613 249.883 235.163 251.483 235.163 253.55C235.163 255.25 234.647 256.783 233.613 258.15C232.58 259.483 231.047 260.533 229.013 261.3C227.013 262.067 224.597 262.45 221.763 262.45ZM250.807 234.45C255.307 234.45 258.74 235.483 261.107 237.55C263.474 239.583 264.657 242.717 264.657 246.95V262H255.807V258.5C254.44 261.133 251.774 262.45 247.807 262.45C245.707 262.45 243.89 262.083 242.357 261.35C240.824 260.617 239.657 259.633 238.857 258.4C238.09 257.133 237.707 255.7 237.707 254.1C237.707 251.533 238.69 249.55 240.657 248.15C242.624 246.717 245.657 246 249.757 246H255.157C254.99 243.133 253.074 241.7 249.407 241.7C248.107 241.7 246.79 241.917 245.457 242.35C244.124 242.75 242.99 243.317 242.057 244.05L238.857 237.6C240.357 236.6 242.174 235.833 244.307 235.3C246.474 234.733 248.64 234.45 250.807 234.45ZM250.457 256.45C251.557 256.45 252.524 256.183 253.357 255.65C254.19 255.117 254.79 254.333 255.157 253.3V250.95H251.057C248.29 250.95 246.907 251.867 246.907 253.7C246.907 254.533 247.224 255.2 247.857 255.7C248.49 256.2 249.357 256.45 250.457 256.45Z" fill="#FFD15C"/>
<g filter="url(#filter0_ddi)">
<circle cx="133" cy="100" r="100" fill="#79FFCF"/>
</g>
<mask id="mask0" mask-type="alpha" maskUnits="userSpaceOnUse" x="33" y="0" width="200" height="200">
<circle cx="133" cy="100" r="100" fill="#C4C4C4"/>
</mask>
<g mask="url(#mask0)">
<path d="M59 112.024V200H206V112.024C177.125 81.372 161 64.2543 132.5 34C104 64.6522 87.8749 81.7698 59 112.024Z" fill="#FFD15C"/>
<path d="M206.125 107.125C177.25 78.2502 161.125 62.1251 132.625 33.625C118 47.8749 106.75 59.1249 95.4999 70.3749C84.2499 81.6249 72.9999 92.8749 58.75 107.125V124C87.6249 95.1249 103.75 78.9998 132.25 50.4997C161.125 79.3745 177.25 95.4996 205.75 124V126.25V107.125H206.125V107.125Z" fill="#F7B64C"/>
<path d="M190 124.375H132.25V175H190V124.375Z" fill="#344A5E"/>
<path d="M158.125 130.375H138.25V169H158.125V130.375Z" fill="#8AD7F8"/>
<path d="M184 130.375H164.125V169H184V130.375Z" fill="#8AD7F8"/>
<path d="M219.625 91.7499L141.25 13.375C136.75 8.875 128.875 8.875 124.375 13.375L46.375 91.7499C41.875 96.2499 41.875 104.125 46.375 108.625C50.875 113.125 58.75 113.125 63.25 108.625L133 38.8749L202.75 108.625C207.25 113.125 215.125 113.125 219.625 108.625C224.125 103.75 224.125 96.2499 219.625 91.7499Z" fill="#F3705A"/>
<rect x="75" y="124" width="44" height="76" fill="#415A6B"/>
</g>
<defs>
<filter id="filter0_ddi" x="29" y="0" width="208" height="208" filterUnits="userSpaceOnUse" color-interpolation-filters="sRGB">
<feFlood flood-opacity="0" result="BackgroundImageFix"/>
<feColorMatrix in="SourceAlpha" type="matrix" values="0 0 0 0 0 0 0 0 0 0 0 0 0 0 0 0 0 0 127 0"/>
<feOffset dy="2"/>
<feGaussianBlur stdDeviation="1"/>
<feColorMatrix type="matrix" values="0 0 0 0 0 0 0 0 0 0 0 0 0 0 0 0 0 0 0.15 0"/>
<feBlend mode="normal" in2="BackgroundImageFix" result="effect1_dropShadow"/>
<feColorMatrix in="SourceAlpha" type="matrix" values="0 0 0 0 0 0 0 0 0 0 0 0 0 0 0 0 0 0 127 0"/>
<feOffset dy="4"/>
<feGaussianBlur stdDeviation="2"/>
<feColorMatrix type="matrix" values="0 0 0 0 0 0 0 0 0 0 0 0 0 0 0 0 0 0 0.25 0"/>
<feBlend mode="normal" in2="effect1_dropShadow" result="effect2_dropShadow"/>
<feBlend mode="normal" in="SourceGraphic" in2="effect2_dropShadow" result="shape"/>
<feColorMatrix in="SourceAlpha" type="matrix" values="0 0 0 0 0 0 0 0 0 0 0 0 0 0 0 0 0 0 127 0" result="hardAlpha"/>
<feOffset dy="1"/>
<feGaussianBlur stdDeviation="1"/>
<feComposite in2="hardAlpha" operator="arithmetic" k2="-1" k3="1"/>
<feColorMatrix type="matrix" values="0 0 0 0 1 0 0 0 0 1 0 0 0 0 1 0 0 0 0.25 0"/>
<feBlend mode="normal" in2="shape" result="effect3_innerShadow"/>
</filter>
</defs>
</svg>
